<svg width="25" height="25" viewBox="0 0 25 25" fill="none" xmlns="http://www.w3.org/2000/svg">
<g clip-path="url(#clip0_22721_7601)">
<path d="M24.6475 12.8951C24.6475 6.22719 19.2749 0.821777 12.6475 0.821777C6.02004 0.821777 0.647461 6.22719 0.647461 12.8951C0.647461 18.9213 5.03569 23.916 10.7725 24.8218V16.3851H7.72559V12.8951H10.7725V10.2352C10.7725 7.20933 12.564 5.53792 15.305 5.53792C16.6179 5.53792 17.9912 5.77373 17.9912 5.77373V8.7449H16.478C14.9873 8.7449 14.5225 9.67557 14.5225 10.6303V12.8951H17.8506L17.3186 16.3851H14.5225V24.8218C20.2592 23.916 24.6475 18.9213 24.6475 12.8951Z" fill="#B3B3BA"/>
</g>
<defs>
<clipPath id="clip0_22721_7601">
<rect width="24" height="24" fill="white" transform="translate(0.647461 0.821777)"/>
</clipPath>
</defs>
</svg>
